<?xml version="1.0" encoding="UTF-8"?>
<svg id="Layer_1" xmlns="http://www.w3.org/2000/svg" version="1.1" viewBox="0 0 2504 698.9">
  <!-- Generator: Adobe Illustrator 29.3.1, SVG Export Plug-In . SVG Version: 2.1.0 Build 151)  -->
  <defs>
    <style>
      .st0 {
        font-family: Play-Bold, Play;
        font-size: 350px;
        font-weight: 700;
      }

      .st1 {
        fill: red;
        letter-spacing: 0em;
      }

      .st2 {
        fill: #de9400;
      }
    </style>
  </defs>
  <g id="Layer_3">
    <polygon class="st2" points="126 452.7 126 249.4 24.3 351 126 452.7"/>
    <polygon class="st2" points="594 249.4 594 452.7 695.7 351 594 249.4"/>
    <polygon class="st2" points="360 686.7 486 560.7 234 560.7 360 686.7"/>
    <path class="st2" d="M396.9,77.8h0c4.9,5.9,10.9,12.1,20.3,14.9,8.3,2.5,15.9,1.2,20.3,0-25.8-25.8-51.6-51.5-77.5-77.3h0c-25.8,25.8-51.6,51.5-77.5,77.3,4.5,1.2,12,2.5,20.3,0,9.4-2.8,15.3-8.9,20.3-14.9h0l-17.2,29.2c-1.3,2.3-3.8,3.7-6.5,3.7h-155.5v432h432V110.7h-155.6c-2.6,0-5-1.4-6.3-3.6l-17.3-29.3h.2ZM360,52.8l34.2,57.9h-68.5l34.2-57.9h0ZM558,128.7v396H162V128.7h131.1l-122.1,207h0l15.7,10.1,126.3-213.6c1.3-2.2,3.6-3.5,6.1-3.5h81.7c2.5,0,4.8,1.3,6.1,3.5l126.3,213.7,15.7-10.1h0l-122.1-207h131.2Z"/>
  </g>
  <text class="st0" transform="translate(744.3 456.1)"><tspan class="st2" x="0" y="0">Prusa</tspan><tspan class="st1" x="947.8" y="0">wire</tspan></text>
</svg>